<?xml version="1.0" encoding="iso-8859-1"?>
<!-- Generator: Adobe Illustrator 19.0.0, SVG Export Plug-In . SVG Version: 6.00 Build 0)  -->
<svg xmlns="http://www.w3.org/2000/svg" xmlns:xlink="http://www.w3.org/1999/xlink" version="1.1" id="Layer_1" x="0px" y="0px" viewBox="0 0 512 512" style="enable-background:new 0 0 512 512;" xml:space="preserve" width="512" height="512">
<g>
	<path d="M262,352h80c5.523,0,10-4.478,10-10V222c0-5.522-4.477-10-10-10h-80c-5.523,0-10,4.478-10,10v120   C252,347.522,256.477,352,262,352z M272,232h60v100h-60V232z"/>
	<path d="M382,352h80c5.523,0,10-4.478,10-10V222c0-5.522-4.477-10-10-10h-80c-5.523,0-10,4.478-10,10v120   C372,347.522,376.477,352,382,352z M392,232h60v100h-60V232z"/>
	<path d="M502,0H10C4.477,0,0,4.478,0,10v492c0,5.522,4.477,10,10,10h492c5.523,0,10-4.478,10-10V10C512,4.478,507.523,0,502,0z    M20,20h472v120H20V20z M40,492H20v-20h20V492z M120,492H60V322c0-35.203,26.122-64.421,60-69.288V492z M200,492h-60V252.712   c33.878,4.867,60,34.085,60,69.288V492z M130,232c-49.626,0-90,40.374-90,90v130H20V160h472v252H302c-5.51,0-10,4.49-10,10   s4.49,10,10,10h190v20H220V322C220,272.374,179.626,232,130,232z M492,492H220v-20h272V492z"/>
	<path d="M262,432c5.51,0,10-4.49,10-10s-4.49-10-10-10c-5.51,0-10,4.49-10,10S256.49,432,262,432z"/>
	<path d="M85.952,102.734h-22.8V47.934c0-1.532-0.768-2.699-2.3-3.5c-1.535-0.8-3.367-1.199-5.5-1.199   c-2.135,0-3.968,0.399-5.5,1.199c-1.535,0.801-2.301,1.968-2.301,3.5v63.601c0,1.534,0.666,2.717,2,3.55   c1.333,0.834,2.934,1.25,4.801,1.25h31.6c1.4,0,2.5-0.666,3.3-2c0.8-1.333,1.2-2.933,1.2-4.8c0-1.866-0.4-3.466-1.2-4.8   C88.452,103.401,87.353,102.734,85.952,102.734z"/>
	<path d="M120.051,44.434c-1.534-0.8-3.367-1.199-5.5-1.199c-2.135,0-3.967,0.399-5.5,1.199c-1.534,0.801-2.3,1.968-2.3,3.5v63.601   c0,1.534,0.766,2.717,2.3,3.55c1.533,0.834,3.365,1.25,5.5,1.25c2.133,0,3.966-0.416,5.5-1.25c1.533-0.833,2.3-2.016,2.3-3.55   V47.934C122.351,46.401,121.584,45.234,120.051,44.434z"/>
	<path d="M181.95,76.734c5.666-2.466,8.5-7.7,8.5-15.7c0-11.866-6.667-17.8-20-17.8h-20.5c-1.867,0-3.467,0.417-4.8,1.25   c-1.335,0.834-2,2.017-2,3.55v63.6c0,1.268,0.615,2.367,1.85,3.3c1.233,0.935,2.883,1.4,4.95,1.4h22.2   c6.133,0,11.016-1.716,14.649-5.15c3.633-3.433,5.45-8.883,5.45-16.35v-2.1c0-4.666-0.867-8.184-2.6-10.551   C187.916,79.818,185.351,78.001,181.95,76.734z M158.65,56.834h10.5c1.8,0,3.2,0.7,4.2,2.1c1,1.4,1.5,3.035,1.5,4.9   c0,1.867-0.5,3.484-1.5,4.85c-1,1.367-2.4,2.051-4.2,2.051h-10.5V56.834z M176.65,93.534c0,6.134-2.667,9.2-8,9.2h-10v-20h10   c5.333,0,8,3.066,8,9.199V93.534z"/>
	<path d="M248.35,84.934c8.065-3.133,12.1-9.899,12.1-20.3c0-14.266-8.2-21.399-24.6-21.399h-20.7c-1.4,0-2.55,0.467-3.45,1.399   c-0.899,0.935-1.35,2.034-1.35,3.3v63.601c0,1.534,0.766,2.717,2.3,3.55c1.533,0.834,3.365,1.25,5.5,1.25   c2.133,0,3.966-0.416,5.5-1.25c1.533-0.833,2.3-2.016,2.3-3.55V87.434h6.601l13.699,26.601c1,1.935,2.666,2.899,5,2.899   c2.333,0,4.551-0.865,6.65-2.6c2.1-1.732,3.15-3.565,3.15-5.5c0-0.732-0.168-1.333-0.5-1.8L248.35,84.934z M242.55,73.284   c-1.535,1.435-3.768,2.149-6.7,2.149h-9.9v-18.6h9.9c2.933,0,5.165,0.717,6.7,2.15c1.532,1.434,2.3,3.816,2.3,7.149   C244.85,69.469,244.082,71.852,242.55,73.284z"/>
	<path d="M312.949,47.834c-0.534-1.666-1.75-2.95-3.649-3.85c-1.9-0.9-4.085-1.351-6.551-1.351c-2.467,0-4.649,0.45-6.55,1.351   c-1.899,0.899-3.117,2.184-3.649,3.85l-18.601,61c-0.134,0.534-0.2,0.9-0.2,1.1c0,1.734,1.083,3.234,3.25,4.5   c2.166,1.268,4.416,1.9,6.75,1.9c2.866,0,4.566-0.966,5.101-2.9l3.399-12.5h21.101l3.399,12.5c0.533,1.935,2.233,2.9,5.101,2.9   c2.333,0,4.583-0.633,6.75-1.9c2.165-1.266,3.25-2.766,3.25-4.5c0-0.199-0.067-0.565-0.2-1.1L312.949,47.834z M295.449,88.934   l7.3-26.8l7.301,26.8H295.449z"/>
	<path d="M385.648,84.934c8.065-3.133,12.1-9.899,12.1-20.3c0-14.266-8.2-21.399-24.6-21.399h-20.7c-1.4,0-2.55,0.467-3.45,1.399   c-0.899,0.935-1.35,2.034-1.35,3.3v63.601c0,1.534,0.766,2.717,2.3,3.55c1.533,0.834,3.365,1.25,5.5,1.25   c2.133,0,3.966-0.416,5.5-1.25c1.533-0.833,2.3-2.016,2.3-3.55V87.434h6.601l13.699,26.601c1,1.935,2.666,2.899,5,2.899   c2.333,0,4.551-0.865,6.65-2.6c2.1-1.732,3.15-3.565,3.15-5.5c0-0.732-0.168-1.333-0.5-1.8L385.648,84.934z M379.849,73.284   c-1.535,1.435-3.768,2.149-6.7,2.149h-9.9v-18.6h9.9c2.933,0,5.165,0.717,6.7,2.15c1.532,1.434,2.3,3.816,2.3,7.149   C382.148,69.469,381.381,71.852,379.849,73.284z"/>
	<path d="M464.799,45.134c-2.367-1.266-4.718-1.899-7.051-1.899c-2,0-3.5,0.967-4.5,2.899l-13.899,25.7l-14-25.7   c-0.601-1.065-1.2-1.815-1.8-2.25c-0.601-0.433-1.5-0.649-2.7-0.649c-2.335,0-4.685,0.634-7.05,1.899   c-2.367,1.268-3.551,2.768-3.551,4.5c0,0.468,0.066,0.835,0.2,1.101l20.7,34.3c0.266,0.399,0.4,0.867,0.4,1.399v25.101   c0,1.534,0.766,2.717,2.3,3.55c1.532,0.834,3.365,1.25,5.5,1.25c2.133,0,3.966-0.416,5.5-1.25c1.532-0.833,2.3-2.016,2.3-3.55   V86.434c0-0.532,0.133-1,0.4-1.399l20.6-34.3c0.133-0.266,0.2-0.633,0.2-1.101C468.349,47.901,467.164,46.401,464.799,45.134z"/>
	<circle cx="90" cy="392" r="10"/>
	<circle cx="170" cy="392" r="10"/>
</g>















</svg>
