<svg fill="none" height="512" viewBox="0 0 24 24" width="512" xmlns="http://www.w3.org/2000/svg"><g clip-rule="evenodd" fill="rgb(0,0,0)" fill-rule="evenodd"><path d="m12 0c-2.76142 0-5 2.23858-5 5s2.23858 5 5 5c2.7614 0 5-2.23858 5-5s-2.2386-5-5-5zm-3 5c0-1.65685 1.3431-3 3-3s3 1.34315 3 3-1.3431 3-3 3-3-1.34315-3-3z"/><path d="m11.5556 12c-5.82972 0-10.5556 4.7259-10.5556 10.5556 0 .7977.6467 1.4444 1.44444 1.4444h19.11116c.7977 0 1.4444-.6467 1.4444-1.4444 0-5.8297-4.7259-10.5556-10.5556-10.5556zm.8888 2c4.5385 0 8.2516 3.5338 8.5379 8h-17.96455c.28625-4.4662 3.99934-8 8.53785-8z"/></g></svg>